PathFileType	4	(X/Y/Z)	E:\Qualisys_Data\Carbon_Farble_Plate\Data\Amateur_Runner\S14\T1\S14T1V22_c3d.trc
DataRate	CameraRate	NumFrames	NumMarkers	Units	OrigDataRate	OrigDataStartFrame	OrigNumFrames
200.000000	200.000000	4	39	mm	200.000000	114	304
Frame#	Time	LSHO			RSHO			LICST			RICST			LASIS			LHEEL			RASIS			LTROC			RTROC			SACR			LTH1			LSK4			LTH2			LTH3			RHM5			LSK2			LTH4			RTH1			LTOE			RTH2			RTH3			RTH4			LLEP			RLEP			LSK1			LSK3			RSK1			LHM5			RSK2			LFT1			RSK3			RSK4			LLME			RLME			RTOE			RHEEL			RFT1			RFT2			LFT2			
		X1	Y1	Z1	X2	Y2	Z2	X3	Y3	Z3	X4	Y4	Z4	X5	Y5	Z5	X6	Y6	Z6	X7	Y7	Z7	X8	Y8	Z8	X9	Y9	Z9	X10	Y10	Z10	X11	Y11	Z11	X12	Y12	Z12	X13	Y13	Z13	X14	Y14	Z14	X15	Y15	Z15	X16	Y16	Z16	X17	Y17	Z17	X18	Y18	Z18	X19	Y19	Z19	X20	Y20	Z20	X21	Y21	Z21	X22	Y22	Z22	X23	Y23	Z23	X24	Y24	Z24	X25	Y25	Z25	X26	Y26	Z26	X27	Y27	Z27	X28	Y28	Z28	X29	Y29	Z29	X30	Y30	Z30	X31	Y31	Z31	X32	Y32	Z32	X33	Y33	Z33	X34	Y34	Z34	X35	Y35	Z35	X36	Y36	Z36	X37	Y37	Z37	X38	Y38	Z38	X39	Y39	Z39	

115	0.57	-409.84765625	1407.170654296875	-541.3389282226562	-409.8580322265625	1415.921264648438	-235.4485931396484	-487.7391357421875	970.0777587890624	-508.5521240234375	-440.2742614746094	964.1036376953124	-233.2447662353516	-447.3788757324219	917.0762939453124	-487.43505859375	-906.7562255859376	158.5153350830078	-369.86962890625	-419.785888671875	921.677734375	-255.1854095458984	-604.3523559570312	861.536376953125	-507.0897216796875	-556.8252563476562	878.56689453125	-191.5799560546875	-600.6898803710938	986.1798706054688	-360.0101013183594	-556.8231811523438	627.129150390625	-511.8772277832031	-769.4091796875	327.0362243652344	-455.5062255859375	-630.2959594726562	641.161865234375	-489.4049072265625	-563.3286743164062	530.7749633789062	-484.4875793457031	-600.6246337890625	200.3446655273438	-208.9444885253906	-710.4158935546875	403.7614440917969	-476.7106323242188	-640.18994140625	545.3718872070312	-467.3008728027344	-326.9487915039062	709.5707397460938	-202.7522277832031	-681.0703735351562	62.31352615356445	-409.9095458984375	-393.935791015625	671.0919799804688	-188.3487548828125	-275.8284606933594	625.7957153320312	-227.3568420410156	-345.1581726074219	582.00830078125	-205.4314727783203	-605.5795288085938	467.3045349121094	-473.4648132324219	-302.0442199707031	536.2422485351562	-213.4191589355469	-642.0299072265625	356.6327819824219	-468.9118041992188	-704.623291015625	277.1151123046875	-451.5542297363281	-363.06787109375	445.4298400878906	-217.0587158203125	-750.05810546875	64.42713165283203	-468.2667846679688	-412.1040649414062	515.9127197265625	-214.9829559326172	-902.1890258789062	130.9794158935547	-342.5518493652344	-451.8369750976562	392.5847473144531	-229.4482727050781	-491.1637878417969	461.4622497558594	-225.9470367431641	-842.4747314453125	161.9701080322266	-429.8709716796875	-617.9456787109375	342.0464477539062	-242.5680847167969	-557.0474243164062	140.1304626464844	-270.7374877929688	-671.4929809570312	373.2321166992188	-295.5211486816406	-690.8424072265625	343.4228210449219	-325.0908203125	-690.0396118164062	361.9960021972656	-269.0187683105469	-914.940673828125	132.3034362792969	-395.4142456054688
116	0.575	-387.9568786621094	1412.452026367188	-539.8982543945312	-391.3925170898438	1420.92041015625	-235.1327209472656	-465.6277465820312	973.3663330078124	-508.6328125	-419.6414489746094	969.0978393554688	-233.1366882324219	-425.9113464355469	920.2794189453124	-487.3701477050781	-899.5347900390625	167.8899230957031	-371.697509765625	-398.9054870605469	927.0543212890624	-255.3318176269531	-584.0333251953125	865.6456909179688	-507.2682495117188	-535.7330932617188	883.887451171875	-190.6477355957031	-579.7568969726562	989.9393920898438	-361.5462646484375	-542.5488891601562	631.9298706054688	-511.9501647949219	-761.4525756835938	334.6083984375	-456.978271484375	-616.0702514648438	647.9580688476562	-489.2893371582031	-551.9772338867188	535.6044311523438	-484.7110595703125	-560.071044921875	192.3291168212891	-209.4650421142578	-702.54638671875	411.0966491699219	-477.1694641113281	-628.4183349609375	552.0883178710938	-467.7410278320312	-304.440185546875	716.0374755859375	-203.4781036376953	-679.822021484375	62.08009719848633	-410.4919128417969	-370.9144897460938	676.6734619140625	-189.1533813476562	-252.6895446777344	632.7861938476562	-228.3246459960938	-321.4512939453125	589.09326171875	-205.3950805664062	-596.0323486328125	473.4517822265625	-473.9364318847656	-277.8788146972656	542.9417724609375	-214.8805999755859	-634.170166015625	363.1482543945312	-469.5797119140625	-697.0842895507812	284.1051025390625	-452.7542724609375	-335.6266174316406	448.4076232910156	-217.6989135742188	-749.0614624023438	64.3001708984375	-468.2991638183594	-387.781494140625	516.4229125976562	-215.9651031494141	-895.7876586914062	140.7384796142578	-343.8028869628906	-421.5313720703125	391.1674194335938	-229.4361419677734	-464.55078125	457.9476623535156	-226.4675445556641	-835.3438110351562	168.8867950439453	-431.1593933105469	-585.278076171875	333.2391967773438	-242.4385681152344	-514.441162109375	134.5133361816406	-270.4277954101562	-640.7111206054688	361.3595581054688	-295.7333984375	-659.2877197265625	330.0445251464844	-324.8171691894531	-658.6409912109375	349.009765625	-269.2828369140625	-908.2953491210938	141.6329650878906	-396.7611694335938
117	0.58	-366.0487365722656	1417.709716796875	-538.9317016601562	-372.9213256835938	1425.858276367188	-234.6636962890625	-443.3119201660156	976.782470703125	-508.224609375	-399.1224365234375	975.0072631835938	-233.5083770751953	-404.3557739257812	923.7122802734376	-486.7151184082031	-890.8704833984375	177.7526702880859	-372.5742797851562	-378.2867431640625	932.3544921875	-255.1106719970703	-564.0687255859375	870.1801147460938	-508.0163269042969	-513.9111328125	889.2086181640625	-189.5807189941406	-558.5675659179688	994.2542724609376	-361.8195495605469	-528.4448852539062	637.2013549804688	-512.3895874023438	-753.2847290039062	342.1505126953125	-457.8178405761719	-601.204833984375	654.542724609375	-488.9024353027344	-539.6083374023438	541.2117919921875	-485.0918579101562	-519.479736328125	184.4295501708984	-210.2582702636719	-693.1663818359375	418.7032165527344	-477.9240417480469	-616.1292724609375	559.3276977539062	-468.1027526855469	-282.0625	722.143310546875	-204.0503234863281	-678.0106811523438	61.28413391113281	-411.6939086914062	-348.2056884765625	683.2534790039062	-189.3429107666016	-229.7186126708984	639.21728515625	-229.1041259765625	-298.2062377929688	595.0322875976562	-206.1946868896484	-585.9521484375	479.4944152832031	-474.6152648925781	-254.1306610107422	548.8522338867188	-215.8397521972656	-625.8026733398438	370.1895446777344	-471.1573486328125	-690.9320678710938	290.1212158203125	-453.3885498046875	-308.33251953125	450.7755432128906	-218.3275146484375	-746.8252563476562	65.239013671875	-469.0231018066406	-363.8705444335938	516.21826171875	-216.8408660888672	-888.3612670898438	150.692138671875	-344.8077392578125	-391.7298583984375	389.5282897949219	-230.3740997314453	-437.9491882324219	454.5946655273438	-226.7742767333984	-827.3949584960938	175.7821807861328	-432.627197265625	-552.2698974609375	323.6439514160156	-242.3297424316406	-470.8377075195312	129.6376800537109	-271.2200317382812	-609.1151123046875	347.9854125976562	-297.5735168457031	-624.3174438476562	317.3185119628906	-325.6296691894531	-627.2106323242188	334.7428283691406	-269.2922058105469	-903.105224609375	150.454345703125	-396.4189453125
118	0.585	-344.4357299804688	1422.98046875	-537.72412109375	-354.4313659667969	1430.81884765625	-234.3502655029297	-421.3245239257812	980.5521240234376	-508.2511291503906	-378.3361511230469	980.1434326171876	-233.2999877929688	-383.0311889648438	926.9102172851562	-486.180908203125	-880.901123046875	187.6053161621094	-373.9098205566406	-357.9272155761719	937.8657836914062	-254.9949493408203	-543.3959350585938	874.8406982421875	-508.2415466308594	-492.5179443359375	894.326171875	-189.4166259765625	-537.6678466796875	998.1731567382812	-362.8640747070312	-513.5478515625	642.4769897460938	-512.7242431640625	-743.9866333007812	350.0787658691406	-458.4112548828125	-585.9715576171875	661.6159057617188	-488.9623413085938	-527.1773071289062	546.5499267578125	-485.4039611816406	-478.6121826171875	176.7741088867188	-210.8495483398438	-684.3204956054688	426.6024475097656	-478.3748168945312	-603.37841796875	566.4947509765625	-468.4473571777344	-259.8038635253906	728.5703125	-204.9709320068359	-675.9873046875	60.49947357177734	-412.6647644042969	-325.7808227539062	688.7356567382812	-189.6686096191406	-207.1708526611328	645.2943725585938	-230.1259002685547	-275.8708801269531	600.5043334960938	-207.0178985595703	-575.675537109375	486.0005798339844	-474.6844482421875	-231.8297882080078	554.0927734375	-217.9921417236328	-616.2701416015625	377.437744140625	-472.2828674316406	-680.698486328125	298.156005859375	-456.55126953125	-281.2492370605469	453.0881652832031	-218.2405242919922	-744.5206298828125	66.13529205322266	-469.8532104492188	-340.1517028808594	515.3873901367188	-217.3593292236328	-880.048583984375	160.9872131347656	-345.8218383789062	-361.8724975585938	387.7515869140625	-231.27880859375	-411.6075134277344	450.5900268554688	-226.1351776123047	-818.6310424804688	183.1862945556641	-434.0413818359375	-519.358154296875	313.7667236328125	-243.5917816162109	-426.861083984375	124.7420806884766	-272.3183288574219	-578.1373291015625	335.6988830566406	-297.3735046386719	-590.957763671875	303.6993103027344	-325.6304931640625	-594.5624389648438	320.9745178222656	-269.3594970703125	-895.112060546875	160.7366638183594	-397.5944519042969
